<svg width="81" height="67" xmlns="http://www.w3.org/2000/svg" xmlns:xlink="http://www.w3.org/1999/xlink" overflow="hidden"><defs><clipPath id="clip0"><rect x="341" y="545" width="81" height="67"/></clipPath></defs><g clip-path="url(#clip0)" transform="translate(-341 -545)"><path d="M83.1696 81.8963 8.60376 81.8963C7.01985 81.8963 5.73584 80.6123 5.73584 79.0284L5.73584 62.4547C5.73584 60.8708 7.01985 59.5868 8.60376 59.5868 10.1877 59.5868 11.4717 60.8708 11.4717 62.4547L11.4717 76.1604 80.3017 76.1604 80.3017 62.4547C80.3017 60.8708 81.5857 59.5868 83.1696 59.5868 84.7535 59.5868 86.0376 60.8708 86.0376 62.4547L86.0376 79.0284C86.0376 80.6123 84.7535 81.8963 83.1696 81.8963Z" transform="matrix(1 0 0 1.00698 335.613 529.405)"/><path d="M62.4575 37.9225C61.697 37.9223 60.9676 37.6201 60.4299 37.0822L45.8867 22.5361 31.3435 37.0822C30.2042 38.1825 28.3886 38.151 27.2882 37.0117 26.2148 35.9003 26.2148 34.1383 27.2882 33.027L43.8591 16.4532C44.9968 15.3774 46.7766 15.3774 47.9143 16.4532L64.4852 33.027C65.605 34.1471 65.6047 35.963 64.4845 37.0828 63.9469 37.6203 63.2178 37.9223 62.4575 37.9225Z" transform="matrix(1 0 0 1.00698 335.613 529.405)"/><path d="M45.8867 66.9171C44.3028 66.9171 43.0188 65.6331 43.0188 64.0492L43.0188 18.4809C43.0188 16.897 44.3028 15.6129 45.8867 15.6129 47.4706 15.6129 48.7546 16.897 48.7546 18.4809L48.7546 64.0492C48.7546 65.6331 47.4706 66.9171 45.8867 66.9171Z" transform="matrix(1 0 0 1.00698 335.613 529.405)"/></g></svg>